<svg width="25" height="25" viewBox="0 0 25 25" fill="none" xmlns="http://www.w3.org/2000/svg">
<rect y="0.178711" width="24.0595" height="24.0595" rx="5.77429" fill="url(#paint0_linear_213_28)"/>
<rect y="0.178711" width="24.0595" height="24.0595" rx="5.77429" fill="#7F0BB6"/>
<path fill-rule="evenodd" clip-rule="evenodd" d="M14.9176 18.6269C13.3226 18.6269 12.0293 17.3336 12.0293 15.7386C12.0293 14.1436 13.3226 12.8502 14.9176 12.8502C16.5133 12.8502 17.806 14.1436 17.806 15.7386C17.806 17.3336 16.5133 18.6269 14.9176 18.6269" fill="white"/>
<path d="M14.9176 18.6269C13.3226 18.6269 12.0293 17.3336 12.0293 15.7386C12.0293 14.1436 13.3226 12.8502 14.9176 12.8502C16.5133 12.8502 17.806 14.1436 17.806 15.7386C17.806 17.3336 16.5133 18.6269 14.9176 18.6269" stroke="white" stroke-width="0.721786" stroke-linecap="round" stroke-linejoin="round"/>
<path d="M15.8805 10.9247V9.53058C15.8805 9.1904 15.7451 8.86369 15.5044 8.623L13.6892 6.80783C13.4485 6.56713 13.1218 6.4317 12.7816 6.4317H8.17824C7.46899 6.4317 6.89453 7.00616 6.89453 7.71541V16.7014C6.89453 17.4106 7.46899 17.9851 8.17824 17.9851H10.7457" stroke="white" stroke-width="0.721786" stroke-linecap="round" stroke-linejoin="round"/>
<path d="M15.8802 9.64098H13.3128C12.9584 9.64098 12.6709 9.35343 12.6709 8.99912V6.4317" stroke="white" stroke-width="0.721786" stroke-linecap="round" stroke-linejoin="round"/>
<path d="M15.9806 15.2072L14.6507 16.5371L13.8535 15.7386" stroke="#A759D1" stroke-width="0.721786" stroke-linecap="round" stroke-linejoin="round"/>
<defs>
<linearGradient id="paint0_linear_213_28" x1="12.0298" y1="0.178711" x2="12.0298" y2="58.7236" gradientUnits="userSpaceOnUse">
<stop stop-color="#F0647D"/>
<stop offset="1" stop-color="#840120"/>
</linearGradient>
</defs>
</svg>
