<svg width="19" height="20" viewBox="0 0 19 20" fill="none" xmlns="http://www.w3.org/2000/svg">
<path fill-rule="evenodd" clip-rule="evenodd" d="M8.35599 11.1441C7.18599 9.97412 6.30399 8.66412 5.71799 7.33512C5.59399 7.05412 5.66699 6.72512 5.88399 6.50812L6.70299 5.69012C7.37399 5.01912 7.37399 4.07012 6.78799 3.48412L5.61399 2.31012C4.83299 1.52912 3.56699 1.52912 2.78599 2.31012L2.13399 2.96212C1.39299 3.70312 1.08399 4.77212 1.28399 5.83212C1.77799 8.44512 3.29599 11.3061 5.74499 13.7551C8.19399 16.2041 11.055 17.7221 13.668 18.2161C14.728 18.4161 15.797 18.1071 16.538 17.3661L17.189 16.7151C17.97 15.9341 17.97 14.6681 17.189 13.8871L16.016 12.7141C15.43 12.1281 14.48 12.1281 13.895 12.7141L12.992 13.6181C12.775 13.8351 12.446 13.9081 12.165 13.7841C10.836 13.1971 9.52599 12.3141 8.35599 11.1441Z" fill="#012A50" stroke="#012A50" stroke-width="1.5" stroke-linecap="round" stroke-linejoin="round"/>
</svg>
